<svg xmlns="http://www.w3.org/2000/svg" width="123.017" height="107.639" viewBox="0 0 123.017 107.639">
  <path id="Icon_awesome-random" data-name="Icon awesome-random" d="M121.328,80.824a5.766,5.766,0,0,1,0,8.155L102.106,108.2a5.77,5.77,0,0,1-9.844-4.078V94.512H78.138a2.884,2.884,0,0,1-2.108-.916L59.078,75.433,71.892,61.7,84.574,75.291h7.689V65.685a5.77,5.77,0,0,1,9.844-4.078l19.221,19.217ZM2.883,36.848H23.066L35.747,50.436l12.814-13.73L31.609,18.543a2.883,2.883,0,0,0-2.108-.916H2.883A2.883,2.883,0,0,0,0,20.51V33.965A2.883,2.883,0,0,0,2.883,36.848Zm89.379,0v9.607a5.77,5.77,0,0,0,9.844,4.078l19.221-19.217a5.766,5.766,0,0,0,0-8.155L102.106,3.944a5.77,5.77,0,0,0-9.844,4.077v9.606H78.138a2.884,2.884,0,0,0-2.108.916L23.066,75.291H2.883A2.883,2.883,0,0,0,0,78.174V91.629a2.883,2.883,0,0,0,2.883,2.883H29.5a2.884,2.884,0,0,0,2.108-.916L84.574,36.848Z" transform="translate(0 -2.25)" fill="#ffddd6"/>
</svg>
