<svg xmlns="http://www.w3.org/2000/svg" width="17.706" height="17.706" viewBox="0 0 17.706 17.706">
  <g id="files-alt" transform="translate(-2.25 19.956) rotate(-90)">
    <path id="Path_6636" data-name="Path 6636" d="M4.779,2.25H14.9a2.529,2.529,0,0,1,2.529,2.529V17.427A2.529,2.529,0,0,1,14.9,19.956H4.779A2.529,2.529,0,0,1,2.25,17.427V4.779A2.529,2.529,0,0,1,4.779,2.25Zm0,1.265A1.265,1.265,0,0,0,3.515,4.779V17.427a1.265,1.265,0,0,0,1.265,1.265H14.9a1.265,1.265,0,0,0,1.265-1.265V4.779A1.265,1.265,0,0,0,14.9,3.515Z" transform="translate(0 0)" fill="#ff9885" fill-rule="evenodd"/>
    <path id="Path_6637" data-name="Path 6637" d="M29.25,8.015V6.75a2.529,2.529,0,0,1,2.529,2.529v7.588A2.529,2.529,0,0,1,29.25,19.4V18.132a1.265,1.265,0,0,0,1.265-1.265V9.279A1.265,1.265,0,0,0,29.25,8.015Z" transform="translate(-11.823 -1.971)" fill="#ff9885"/>
  </g>
</svg>
