<svg xmlns="http://www.w3.org/2000/svg" width="16.104" height="16.104" viewBox="0 0 16.104 16.104">
  <g id="Group_7568" data-name="Group 7568" transform="translate(-68.684 -350)">
    <path id="Icon_awesome-user-alt" data-name="Icon awesome-user-alt" d="M8.052,9.058A4.529,4.529,0,1,0,3.523,4.529,4.53,4.53,0,0,0,8.052,9.058Zm4.026,1.006H10.345a5.475,5.475,0,0,1-4.586,0H4.026A4.026,4.026,0,0,0,0,14.091v.5A1.51,1.51,0,0,0,1.51,16.1H14.594a1.51,1.51,0,0,0,1.51-1.51v-.5A4.026,4.026,0,0,0,12.078,10.065Z" transform="translate(68.684 350)" fill="#f9b6aa"/>
  </g>
</svg>
