<svg xmlns="http://www.w3.org/2000/svg" width="8.334" height="11.053" viewBox="0 0 8.334 11.053">
  <g id="Group_7693" data-name="Group 7693" transform="translate(-844.512 475.961)">
    <path id="Path_6657" data-name="Path 6657" d="M852.845-472.268c0,.565-.006,1.131,0,1.7a5.5,5.5,0,0,1-2.431,4.727,9.148,9.148,0,0,1-1.318.739c-.118.06-.238.116-.355.178a.122.122,0,0,1-.128,0c-.347-.176-.7-.339-1.043-.524a6.146,6.146,0,0,1-1.743-1.4,5.191,5.191,0,0,1-1.223-2.53,6,6,0,0,1-.093-1.023c0-1.387.016-2.775.024-4.162a.09.09,0,0,1,.074-.1q2-.64,4-1.283a.245.245,0,0,1,.14,0q1.992.637,3.982,1.277a.1.1,0,0,1,.087.121c0,.761,0,1.523,0,2.284Zm-.572.189h-.026q0-1.034,0-2.068a.09.09,0,0,0-.075-.1q-1.712-.548-3.424-1.1a.26.26,0,0,0-.149,0q-1.712.547-3.423,1.1a.086.086,0,0,0-.072.1c-.007,1.269-.019,2.539-.024,3.808a4.609,4.609,0,0,0,.216,1.405,5.069,5.069,0,0,0,1.873,2.56,9.25,9.25,0,0,0,1.365.779.27.27,0,0,0,.284,0,9.924,9.924,0,0,0,1.266-.708,4.919,4.919,0,0,0,2.188-4.271C852.265-471.081,852.273-471.58,852.273-472.079Z" transform="translate(0)" fill="#ff9885"/>
    <path id="Path_6658" data-name="Path 6658" d="M858.626-457.641c0-.629,0-1.258,0-1.887a.111.111,0,0,1,.093-.125c.988-.315,1.975-.634,2.963-.949a.246.246,0,0,1,.14,0c.988.315,1.975.634,2.963.949a.111.111,0,0,1,.093.126c.005,1.157.029,2.314.018,3.47a4.329,4.329,0,0,1-1.595,3.342,6.121,6.121,0,0,1-1.408.887.293.293,0,0,1-.284,0,5.769,5.769,0,0,1-1.7-1.158,4.338,4.338,0,0,1-1.306-3.158q0-.749,0-1.5Z" transform="translate(-13.075 -14.242)" fill="#ff9885"/>
  </g>
</svg>
