<svg xmlns="http://www.w3.org/2000/svg" width="21.472" height="16.104" viewBox="0 0 21.472 16.104">
  <g id="Group_7566" data-name="Group 7566" transform="translate(-66 -350)">
    <g id="camera" transform="translate(66 345.5)">
      <path id="Path_6633" data-name="Path 6633" d="M20.13,17.92V9.868a1.342,1.342,0,0,0-1.342-1.342H17.215a4.026,4.026,0,0,1-2.845-1.18L13.256,6.235a1.342,1.342,0,0,0-.947-.393H9.163a1.342,1.342,0,0,0-.949.393L7.1,7.346a4.026,4.026,0,0,1-2.846,1.18H2.684A1.342,1.342,0,0,0,1.342,9.868V17.92a1.342,1.342,0,0,0,1.342,1.342h16.1A1.342,1.342,0,0,0,20.13,17.92ZM2.684,7.184A2.684,2.684,0,0,0,0,9.868V17.92A2.684,2.684,0,0,0,2.684,20.6h16.1a2.684,2.684,0,0,0,2.684-2.684V9.868a2.684,2.684,0,0,0-2.684-2.684H17.215a2.684,2.684,0,0,1-1.9-.787L14.206,5.286a2.684,2.684,0,0,0-1.9-.786H9.163a2.684,2.684,0,0,0-1.9.787L6.155,6.4a2.684,2.684,0,0,1-1.9.786Z" fill="#f9b6aa" fill-rule="evenodd"/>
      <path id="Path_6634" data-name="Path 6634" d="M14.822,19.3a3.355,3.355,0,1,0-3.355-3.355A3.355,3.355,0,0,0,14.822,19.3Zm0,1.342a4.7,4.7,0,1,0-4.7-4.7,4.7,4.7,0,0,0,4.7,4.7Z" transform="translate(-4.086 -2.724)" fill="#f9b6aa" fill-rule="evenodd"/>
      <path id="Path_6635" data-name="Path 6635" d="M5.842,14.171a.671.671,0,1,1-.671-.671A.671.671,0,0,1,5.842,14.171Z" transform="translate(-1.816 -3.632)" fill="#f9b6aa"/>
    </g>
  </g>
</svg>
