<svg xmlns="http://www.w3.org/2000/svg" width="8.929" height="7.935" viewBox="0 0 8.929 7.935">
  <g id="Group_7626" data-name="Group 7626" transform="translate(-7010.519 -6231)">
    <path id="Icon_awesome-edit" data-name="Icon awesome-edit" d="M6.241,1.3l1.4,1.4a.152.152,0,0,1,0,.214L4.254,6.293l-1.439.16a.3.3,0,0,1-.333-.333l.16-1.439L6.027,1.3A.152.152,0,0,1,6.241,1.3ZM8.752.94,8,.184a.606.606,0,0,0-.856,0L6.591.732a.152.152,0,0,0,0,.214l1.4,1.4a.152.152,0,0,0,.214,0L8.752,1.8a.606.606,0,0,0,0-.856Zm-2.8,4.432V6.95H.992V1.99H4.554a.191.191,0,0,0,.132-.054l.62-.62A.186.186,0,0,0,5.174,1H.744A.744.744,0,0,0,0,1.742V7.2a.744.744,0,0,0,.744.744H6.2A.744.744,0,0,0,6.945,7.2V4.752a.186.186,0,0,0-.318-.132l-.62.62A.191.191,0,0,0,5.952,5.372Z" transform="translate(7010.519 6230.993)" fill="#ff9885"/>
  </g>
</svg>
