<svg xmlns="http://www.w3.org/2000/svg" xmlns:xlink="http://www.w3.org/1999/xlink" width="173.965" height="173.965" viewBox="0 0 173.965 173.965">
  <defs>
    <linearGradient id="linear-gradient" x1="0.22" y1="0.181" x2="0.86" y2="0.795" gradientUnits="objectBoundingBox">
      <stop offset="0" stop-color="#221e1f"/>
      <stop offset="1" stop-color="#fff"/>
    </linearGradient>
  </defs>
  <g id="Group_7589" data-name="Group 7589" transform="translate(-51.75 -51.75)" opacity="0.2">
    <path id="Path_6639" data-name="Path 6639" d="M225.715,138.732v.206a87.086,87.086,0,1,1,0-.206Z" fill="#ff9885"/>
    <g id="Group_7588" data-name="Group 7588" transform="translate(94.107 88.057)">
      <path id="Path_6640" data-name="Path 6640" d="M279.9,185.382A87.018,87.018,0,0,1,215.853,269.1c-11.675-11.03-43.05-40.672-47.293-44.682a1.459,1.459,0,0,1-.123-.114l-.1-.1c-.088-.079-.171-.154-.254-.237-.237-.215-.469-.434-.7-.654l-.013-.013c-.228-.219-.452-.443-.676-.667l-.075-.075c-.211-.215-.417-.434-.623-.658s-.421-.452-.623-.684c-.233-.259-.456-.527-.68-.8-.18-.219-.36-.439-.535-.667-.026-.035-.053-.07-.083-.105a1.558,1.558,0,0,1-.1-.136c-.123-.154-.237-.307-.351-.465-.053-.066-.1-.132-.149-.2-.031-.039-.057-.083-.083-.123-.167-.228-.333-.465-.491-.7-.136-.206-.276-.412-.408-.619s-.268-.412-.4-.619c-.171-.268-.338-.54-.5-.812-.092-.149-.18-.3-.272-.452-.127-.215-.254-.43-.373-.645s-.241-.421-.355-.632a1.455,1.455,0,0,1-.079-.14c-.162-.294-.32-.592-.478-.891-.219-.417-.434-.834-.641-1.259,0,0,0-.013-.009-.018-.184-.373-.364-.75-.54-1.128-.079-.167-.154-.333-.228-.5-.105-.228-.206-.461-.307-.693-.075-.158-.14-.32-.211-.483-.175-.417-.347-.834-.513-1.255-.132-.325-.259-.649-.377-.978l-.145-.382c-.145-.395-.29-.794-.426-1.2a1.007,1.007,0,0,1-.053-.149c-.127-.369-.254-.746-.373-1.123-.039-.114-.075-.228-.114-.342-.14-.452-.281-.908-.412-1.365-.145-.487-.281-.978-.412-1.474q-.151-.553-.29-1.119c-.285-1.128-.54-2.277-.772-3.444q-.211-1.066-.395-2.145c-.307-1.808-.562-3.668-.759-5.568q-.053-.461-.092-.935-.079-.816-.145-1.645c-.048-.641-.092-1.281-.127-1.931-.048-.829-.088-1.667-.114-2.51-.013-.4-.026-.8-.035-1.2q-.026-1.211-.026-2.435c0-.535,0-1.075.013-1.615.009-.434.022-.86.039-1.29.022-.579.057-1.158.092-1.737.035-.61.083-1.224.127-1.856.022-.307.044-.614.066-.926.075-1.053.14-2.1.171-3.155.018-.452.026-.908.026-1.36A9.847,9.847,0,0,0,151.813,162c-.211-.417-.439-.851-.7-1.3a41.258,41.258,0,0,0-2.826-4.234l.013-.053.434-1.746,1.452-5.8,1.11-4.445.048-.2c.886.456,1.755.882,2.611,1.268q1.224.553,2.409,1.018c26.014,10.17,37.425-12.013,37.425-12.013s3.4,4.559,6.511,8.3c.044.057.088.11.136.162,1.2,1.443,2.347,2.751,3.225,3.607a11.354,11.354,0,0,0,3.9,2.5c4.225,1.6,9.705,1.483,16.172-.347a.014.014,0,0,0,.009,0c.426-.123.86-.25,1.3-.386a71.786,71.786,0,0,0,11.478-4.831S264.923,170.973,279.9,185.382Z" transform="translate(-148.29 -134.5)" opacity="0.5" fill="url(#linear-gradient)" style="mix-blend-mode: multiply;isolation: isolate"/>
      <path id="Path_6641" data-name="Path 6641" d="M239.258,157.389l-3.016-12.237c-29.571,15.3-42.4-9.007-42.4-9.007s-12.916,24.3-42.488,9.007l-3.059,12.237s4.759,6.118,4.759,9.517c0,3.436-.469,6.884-.519,10.327a95.7,95.7,0,0,0,1.678,19.985,59.281,59.281,0,0,0,8.686,21.721c4.7,6.976,11.823,11.2,18.886,15.448,1.278.768,2.565,1.532,3.9,2.2a71.505,71.505,0,0,1,8.158,4.759s3.483-2.077,8.078-4.759c3.457-2.018,6.5-3.681,9.611-5.756,3.866-2.583,7.786-5.178,10.8-8.764a46.026,46.026,0,0,0,6.974-11.63,62.948,62.948,0,0,0,2.379-6.614,83.424,83.424,0,0,0,3.231-20.467,124.029,124.029,0,0,0-.287-14.105c-.057-.778-.149-1.564-.149-2.345C234.478,163.507,239.258,157.389,239.258,157.389Z" transform="translate(-148.291 -135.423)" fill="#ffba94"/>
      <path id="Path_6642" data-name="Path 6642" d="M239.258,157.389l-3.016-12.237c-29.571,15.3-42.4-9.007-42.4-9.007s-12.916,24.3-42.488,9.007l-3.059,12.237s4.759,6.118,4.759,9.517c0,3.436-.469,6.884-.519,10.327a95.7,95.7,0,0,0,1.678,19.985,59.281,59.281,0,0,0,8.686,21.721c4.7,6.976,11.823,11.2,18.886,15.448,1.278.768,2.565,1.532,3.9,2.2a71.505,71.505,0,0,1,8.158,4.759s3.483-2.077,8.078-4.759c3.457-2.018,6.5-3.681,9.611-5.756,3.866-2.583,7.786-5.178,10.8-8.764a46.026,46.026,0,0,0,6.974-11.63,62.948,62.948,0,0,0,2.379-6.614,83.424,83.424,0,0,0,3.231-20.467,124.029,124.029,0,0,0-.287-14.105c-.057-.778-.149-1.564-.149-2.345C234.478,163.507,239.258,157.389,239.258,157.389Z" transform="translate(-148.291 -135.423)" fill="none" stroke="#fff" stroke-width="3"/>
      <path id="Path_6643" data-name="Path 6643" d="M238.834,156.38l-1.43-5.818-1.092-4.458-.018.009-1.882.772-2.343.965a42.369,42.369,0,0,1-7.011,2.22,33.811,33.811,0,0,1-7.213.807,26.61,26.61,0,0,1-17.524-6.336,30.116,30.116,0,0,1-3.479-3.449l-.917-1.066-2.075-2.418-2.014,2.339-.026.035-.956,1.11a30.7,30.7,0,0,1-5.076,4.73c-.351.254-.711.509-1.084.755-.171.114-.347.224-.518.333-.145.1-.294.184-.443.272s-.329.2-.5.294-.342.2-.513.29c-.347.193-.7.377-1.062.548-.18.1-.364.184-.548.263a24.706,24.706,0,0,1-3.567,1.347c-.421.127-.856.246-1.294.347-.649.162-1.321.294-2.009.4a1.154,1.154,0,0,1-.171.026c-.417.066-.842.123-1.277.167-.158.018-.316.035-.474.044s-.329.031-.5.044l-.259.013q-.4.026-.816.039c-.316.013-.636.018-.961.018-.268,0-.531,0-.8-.013-.325-.009-.649-.022-.978-.039l-.737-.053c-.623-.053-1.25-.127-1.887-.215a39.379,39.379,0,0,1-7.985-2.058q-.454-.165-.908-.342s-.013,0-.018-.009a.836.836,0,0,1-.092-.039c-.272-.105-.548-.215-.825-.329,0,0-.009,0-.013,0l-.3-.127-3.927-1.628-1.11,4.445-1.452,5.8-.434,1.746,1.031,1.479c.68.97,1.277,1.917,1.781,2.808.259.448.487.882.7,1.3a10.035,10.035,0,0,1,1.233,3.988c0,.452-.009.908-.022,1.36-.035,1.053-.1,2.11-.171,3.155-.022.312-.044.619-.066.926-.044.632-.092,1.246-.127,1.856-.035.579-.07,1.158-.092,1.737-.018.43-.031.856-.039,1.29-.009.54-.013,1.079-.013,1.615q0,1.224.026,2.435c.009.4.022.8.035,1.2.026.842.066,1.68.114,2.51.035.649.079,1.29.127,1.93q.066.829.145,1.645.039.474.092.935c.2,1.9.452,3.76.759,5.568q.184,1.086.395,2.145c.233,1.167.487,2.317.772,3.444q.138.566.29,1.119c.132.5.268.987.412,1.474.132.456.272.913.412,1.365.039.114.075.228.114.342.118.377.246.755.373,1.123a1.007,1.007,0,0,0,.053.149c.136.4.281.8.426,1.2l.145.382c.123.329.246.654.377.978.167.421.338.838.513,1.255.07.162.136.325.211.483.1.233.2.465.307.693.075.171.149.338.228.5.175.377.355.755.54,1.128,0,0,0,.013.009.018.206.426.421.842.641,1.259.158.3.316.6.478.891a1.455,1.455,0,0,0,.079.14q.171.316.355.632c.118.215.246.43.373.645.092.154.18.3.272.452.162.272.329.544.5.812.132.206.263.412.4.619s.268.412.4.619c.189.281.382.557.579.825.048.07.1.136.149.2.077.107.158.211.238.315s.139.192.214.286c.031.035.057.07.083.105.176.228.355.448.535.667.055.066.111.129.166.2.152.182.3.363.46.541.018.021.035.043.054.063.063.073.13.143.2.215q.485.543.989,1.063l.061.065.075.075.052.052c.55.557,1.111,1.1,1.694,1.62a1.459,1.459,0,0,0,.123.114,56.237,56.237,0,0,0,6.656,4.989c.851.562,1.72,1.11,2.6,1.654,1.2.741,2.418,1.474,3.65,2.216l.316.193c.864.518,1.72,1.027,2.589,1.5.184.1.373.206.562.3.246.132.5.259.746.386.162.083.325.162.483.246s.32.162.474.241c1.873.974,3.484,1.913,4.66,2.633.18.11.351.215.509.316a.178.178,0,0,1,.039.022l2.036,1.272.307-.18.263-.154,1.5-.886.544-.32c.171-.1.351-.206.535-.32.1-.057.206-.118.312-.184s.219-.127.329-.193c1.193-.7,2.65-1.558,4.247-2.492.215-.127.43-.25.645-.373.426-.25.847-.491,1.259-.728l.395-.224.123-.075c.241-.136.478-.276.715-.412.2-.118.4-.233.605-.351.4-.228.8-.461,1.193-.693.2-.114.395-.233.592-.351q.954-.559,1.9-1.145c.342-.211.68-.426,1.022-.645.386-.246.772-.5,1.163-.759l.162-.105.562-.377.724-.487c1.228-.825,2.426-1.645,3.576-2.51.237-.171.469-.351.7-.527.693-.531,1.369-1.079,2.018-1.654a29.035,29.035,0,0,0,2.488-2.444c.193-.215.386-.434.575-.658q.862-1.027,1.68-2.15c.132-.18.263-.364.391-.548.281-.395.553-.8.82-1.215.154-.233.3-.465.452-.706.114-.18.228-.364.338-.548.412-.68.816-1.382,1.2-2.106.092-.171.184-.342.272-.513.132-.25.259-.5.386-.755s.254-.509.377-.763c.237-.5.465-.992.693-1.492a.266.266,0,0,0,.022-.053c.118-.259.233-.518.342-.781.219-.522.439-1.049.649-1.588l.013-.039c.206-.527.408-1.062.6-1.6.395-1.106.772-2.238,1.114-3.392.114-.382.228-.768.333-1.158.088-.307.171-.619.254-.93q.355-1.343.667-2.725c.079-.364.158-.733.237-1.1,0-.018.009-.039.013-.057q.632-3.08,1.053-6.357c.053-.43.105-.864.154-1.3a.056.056,0,0,1,0-.026c.1-.886.184-1.777.259-2.681.07-.856.132-1.716.18-2.589.026-.509.053-1.027.075-1.544.079-1.878.105-3.8.079-5.8,0-.329-.009-.663-.018-1,0-.4-.018-.807-.031-1.215-.026-.812-.057-1.623-.1-2.435-.057-1.189-.127-2.4-.219-3.655-.018-.206-.031-.417-.048-.623l0-.031c-.022-.281-.048-.566-.066-.851-.009-.136-.018-.276-.022-.412s-.009-.294-.009-.443c0-.127.009-.254.022-.395a2.789,2.789,0,0,1,.044-.312.34.34,0,0,1,.009-.066,2.517,2.517,0,0,1,.061-.294,5.241,5.241,0,0,1,.145-.557c.026-.1.057-.193.092-.294.061-.193.132-.39.215-.6a27.076,27.076,0,0,1,3.146-5.6l1.027-1.461,0-.009Zm-8.288,11.329c0,.737.057,1.426.11,2.036.018.2.035.408.048.61a118.8,118.8,0,0,1,.281,13.658,79.786,79.786,0,0,1-3.067,19.5,59.806,59.806,0,0,1-2.229,6.2,42.2,42.2,0,0,1-6.366,10.635c-2.611,3.106-6.107,5.441-9.806,7.915l-.167.11c-2.255,1.5-4.541,2.821-6.963,4.216l-.114.066q-1.139.652-2.33,1.347c-2.448,1.426-4.6,2.694-5.989,3.519-1.6-1-3.843-2.317-6.494-3.642-1.207-.6-2.4-1.312-3.628-2.049l-.311-.189c-6.787-4.08-13.2-7.937-17.335-14.084a55.4,55.4,0,0,1-8.091-20.283,92.5,92.5,0,0,1-1.6-19.16c.022-1.514.132-3.041.25-4.655.132-1.856.268-3.773.268-5.726,0-3.435-2.6-7.753-4.423-10.359l1.448-5.84a41.179,41.179,0,0,0,15.751,3.361,30.484,30.484,0,0,0,15.018-3.83,33.35,33.35,0,0,0,9.038-7.437,31.105,31.105,0,0,0,24,11.179,41.256,41.256,0,0,0,15.725-3.313l1.43,5.822C233.161,159.925,230.546,164.251,230.546,167.708Z" transform="translate(-148.307 -136.245)" fill="#fcfcfc"/>
      <g id="Group_7587" data-name="Group 7587" transform="translate(31.463 31.423)">
        <g id="Group_7586" data-name="Group 7586">
          <path id="Path_6644" data-name="Path 6644" d="M245.009,223.179v-5.967a11.016,11.016,0,0,0-2.637-7.222,10.873,10.873,0,0,0-8.31-3.87,11.018,11.018,0,0,0-10.991,11.092v5.967H220v23.693h28.08V223.179Zm-9.016,11.978v5.265h-3.716v-5.265a3.167,3.167,0,0,1-1.229-2.527,3.134,3.134,0,0,1,3.137-3.1h.035a3.09,3.09,0,0,1,3.089,3.1A3.244,3.244,0,0,1,235.992,235.157Zm3.751-11.978H227.9v-6.537c0-3.514,2.409-6.379,5.923-6.379s5.923,2.865,5.923,6.379Z" transform="translate(-220 -206.12)" fill="#fcfcfc"/>
        </g>
      </g>
    </g>
    <circle id="Ellipse_314" data-name="Ellipse 314" cx="86.981" cy="86.981" r="86.981" transform="translate(51.751 51.751)" fill="none"/>
  </g>
</svg>
