<svg xmlns="http://www.w3.org/2000/svg" width="18.693" height="15.773" viewBox="0 0 18.693 15.773">
  <path id="Icon_awesome-tasks" data-name="Icon awesome-tasks" d="M5.1,2.377a.438.438,0,0,0-.621,0L2.152,4.688l-.829-.808a.438.438,0,0,0-.621,0l-.573.574a.438.438,0,0,0,0,.621L1.866,6.806a.467.467,0,0,0,.643,0l.569-.57L5.715,3.6a.441.441,0,0,0,0-.621Zm0,5.812a.438.438,0,0,0-.621,0L2.152,10.515l-.829-.807a.438.438,0,0,0-.621,0l-.573.573a.438.438,0,0,0,0,.621l1.733,1.734a.466.466,0,0,0,.643,0l.573-.573L5.714,9.427a.438.438,0,0,0,0-.617ZM2.337,14.517a1.753,1.753,0,1,0,0,3.505,1.753,1.753,0,1,0,0-3.505Zm15.773.584H7.594a.584.584,0,0,0-.584.584v1.168a.584.584,0,0,0,.584.584H18.109a.584.584,0,0,0,.584-.584V15.685A.584.584,0,0,0,18.109,15.1Zm0-11.683H7.594A.584.584,0,0,0,7.01,4V5.17a.584.584,0,0,0,.584.584H18.109a.584.584,0,0,0,.584-.584V4A.584.584,0,0,0,18.109,3.417Zm0,5.842H7.594a.584.584,0,0,0-.584.584v1.168a.584.584,0,0,0,.584.584H18.109a.584.584,0,0,0,.584-.584V9.843A.584.584,0,0,0,18.109,9.259Z" transform="translate(0 -2.248)" fill="#ff9885"/>
</svg>
