<svg xmlns="http://www.w3.org/2000/svg" width="11.197" height="11.197" viewBox="0 0 11.197 11.197">
  <g id="Icon_feather-smile" data-name="Icon feather-smile" transform="translate(-2.5 -2.5)">
    <path id="Path_6646" data-name="Path 6646" d="M8.1,2.5A5.6,5.6,0,1,1,2.5,8.1,5.6,5.6,0,0,1,8.1,2.5Zm0,10.2A4.6,4.6,0,1,0,3.5,8.1,4.6,4.6,0,0,0,8.1,12.7Z" fill="#ff9885"/>
    <path id="Path_6647" data-name="Path 6647" d="M14.039,22.52A3.254,3.254,0,0,1,11.6,21.3a.5.5,0,0,1,.8-.6h0a2.271,2.271,0,0,0,1.641.822,2.271,2.271,0,0,0,1.641-.822.5.5,0,1,1,.8.6A3.254,3.254,0,0,1,14.039,22.52Z" transform="translate(-5.941 -11.882)" fill="#ff9885"/>
    <path id="Path_6648" data-name="Path 6648" d="M13.505,14H13.5a.5.5,0,0,1,0-1h.005a.5.5,0,0,1,0,1Z" transform="translate(-6.931 -6.931)" fill="#ff9885"/>
    <path id="Path_6649" data-name="Path 6649" d="M22.505,14H22.5a.5.5,0,1,1,0-1h.005a.5.5,0,0,1,0,1Z" transform="translate(-12.872 -6.931)" fill="#ff9885"/>
  </g>
</svg>
