<svg xmlns="http://www.w3.org/2000/svg" width="9.178" height="10.489" viewBox="0 0 9.178 10.489">
  <path id="Icon_awesome-book" data-name="Icon awesome-book" d="M9.178,7.375V.492A.49.49,0,0,0,8.686,0H1.967A1.967,1.967,0,0,0,0,1.967V8.522a1.967,1.967,0,0,0,1.967,1.967H8.686A.49.49,0,0,0,9.178,10V9.669A.5.5,0,0,0,9,9.286a4.569,4.569,0,0,1,0-1.53A.488.488,0,0,0,9.178,7.375ZM2.622,2.745a.123.123,0,0,1,.123-.123H7.088a.123.123,0,0,1,.123.123v.41a.123.123,0,0,1-.123.123H2.745a.123.123,0,0,1-.123-.123Zm0,1.311a.123.123,0,0,1,.123-.123H7.088a.123.123,0,0,1,.123.123v.41a.123.123,0,0,1-.123.123H2.745a.123.123,0,0,1-.123-.123ZM7.813,9.178H1.967a.656.656,0,1,1,0-1.311H7.813A7.375,7.375,0,0,0,7.813,9.178Z" fill="#ff9885"/>
</svg>
