<svg xmlns="http://www.w3.org/2000/svg" width="11.437" height="11.185" viewBox="0 0 11.437 11.185">
  <path id="Icon_material-notifications-active" data-name="Icon material-notifications-active" d="M6.228,4.656l-.82-.82a5.98,5.98,0,0,0-2.363,4.5H4.192A4.844,4.844,0,0,1,6.228,4.656Zm7.107,3.682h1.147a6.016,6.016,0,0,0-2.363-4.5l-.814.82a4.873,4.873,0,0,1,2.03,3.682Zm-1.13.287A3.5,3.5,0,0,0,9.624,5V4.61a.86.86,0,1,0-1.721,0V5A3.485,3.485,0,0,0,5.322,8.625v2.868L4.175,12.64v.574h9.177V12.64L12.2,11.493ZM8.764,14.935a1,1,0,0,0,.229-.023,1.164,1.164,0,0,0,.826-.677,1.152,1.152,0,0,0,.086-.447H7.611A1.155,1.155,0,0,0,8.764,14.935Z" transform="translate(-3.045 -3.75)" fill="#fff"/>
</svg>
