<svg xmlns="http://www.w3.org/2000/svg" width="16.4" height="20" viewBox="0 0 16.4 20">
  <g id="Icon_feather-clipboard" data-name="Icon feather-clipboard" transform="translate(-5 -2)">
    <path id="Path_6649" data-name="Path 6649" d="M16.8,6h1.8a1.8,1.8,0,0,1,1.8,1.8V20.4a1.8,1.8,0,0,1-1.8,1.8H7.8A1.8,1.8,0,0,1,6,20.4V7.8A1.8,1.8,0,0,1,7.8,6H9.6" transform="translate(0 -1.2)" fill="none" stroke="#828081" stroke-linecap="round" stroke-linejoin="round" stroke-width="2"/>
    <path id="Path_6650" data-name="Path 6650" d="M12.9,3h5.4a.9.9,0,0,1,.9.9V5.7a.9.9,0,0,1-.9.9H12.9a.9.9,0,0,1-.9-.9V3.9A.9.9,0,0,1,12.9,3Z" transform="translate(-2.4)" fill="none" stroke="#828081" stroke-linecap="round" stroke-linejoin="round" stroke-width="2"/>
  </g>
</svg>
