<?xml version="1.0" standalone="no"?>
<!DOCTYPE svg PUBLIC "-//W3C//DTD SVG 20010904//EN"
 "http://www.w3.org/TR/2001/REC-SVG-20010904/DTD/svg10.dtd">
<svg version="1.0" xmlns="http://www.w3.org/2000/svg"
 width="512.000000pt" height="512.000000pt" viewBox="0 0 512.000000 512.000000"
 preserveAspectRatio="xMidYMid meet">

<g transform="translate(0.000000,512.000000) scale(0.100000,-0.100000)"
fill="#000000" stroke="none">
<path d="M1253 4675 c-174 -47 -317 -182 -376 -354 l-22 -66 -3 -1215 c-2
-798 1 -1242 7 -1295 13 -95 67 -215 130 -287 51 -58 136 -115 221 -148 l65
-25 1683 -3 c1853 -3 1745 -6 1874 59 130 66 247 220 277 367 8 37 11 428 11
1280 0 1358 3 1292 -65 1421 -60 114 -166 207 -290 254 l-60 22 -1700 2
c-1438 2 -1708 0 -1752 -12z m3372 -419 c69 -29 65 21 63 -831 l-3 -769 -352
409 c-238 278 -365 419 -395 437 -131 80 -285 78 -411 -5 -34 -23 -167 -175
-459 -525 l-411 -493 -152 150 c-191 189 -222 206 -370 206 -164 0 -163 1
-537 -373 l-318 -317 0 1018 c0 1125 -4 1063 63 1092 48 21 3231 22 3282 1z"/>
<path d="M1790 4032 c-73 -24 -125 -59 -183 -121 -155 -166 -149 -420 14 -584
246 -246 659 -111 719 234 24 136 -26 275 -134 377 -84 78 -148 104 -271 109
-68 2 -104 -1 -145 -15z"/>
<path d="M267 2325 c-157 -523 -261 -887 -264 -924 -17 -183 97 -385 260 -464
31 -15 232 -75 445 -132 359 -96 808 -216 2372 -635 333 -90 632 -165 665
-167 172 -14 354 80 442 228 20 34 69 173 133 378 56 178 104 330 107 338 4
11 -257 13 -1578 13 -1527 0 -1587 1 -1678 20 -251 52 -474 233 -568 463 -69
168 -66 122 -72 974 l-6 771 -258 -863z"/>
</g>
</svg>
