<?xml version="1.0" standalone="no"?>
<!DOCTYPE svg PUBLIC "-//W3C//DTD SVG 20010904//EN"
 "http://www.w3.org/TR/2001/REC-SVG-20010904/DTD/svg10.dtd">
<svg version="1.0" xmlns="http://www.w3.org/2000/svg"
 width="268.000000pt" height="232.000000pt" viewBox="0 0 268.000000 232.000000"
 preserveAspectRatio="xMidYMid meet">

<g transform="translate(0.000000,232.000000) scale(0.100000,-0.100000)"
fill="#000000" stroke="none">
<path d="M890 2033 c-14 -2 -51 -11 -83 -18 -253 -63 -456 -299 -472 -550 -8
-114 -14 -725 -8 -740 10 -28 41 -15 83 35 80 95 152 107 282 46 113 -53 181
-66 348 -66 111 0 162 5 220 20 223 58 399 230 466 456 27 91 25 258 -5 354
-74 241 -270 416 -512 459 -62 10 -264 13 -319 4z m300 -219 c180 -72 293
-222 307 -407 10 -131 -31 -247 -123 -347 -120 -129 -290 -179 -459 -135 -82
22 -144 58 -208 122 -263 263 -133 691 238 787 42 11 200 -2 245 -20z"/>
<path d="M926 1748 c-8 -13 -24 -46 -35 -75 l-20 -52 32 -5 c18 -3 47 -7 65
-9 l32 -4 0 84 0 83 -30 0 c-20 0 -34 -7 -44 -22z"/>
<path d="M1070 1686 l0 -84 43 5 c23 2 52 6 64 9 l23 4 -21 53 c-31 80 -45 97
-79 97 l-30 0 0 -84z"/>
<path d="M1240 1688 c20 -45 35 -54 60 -39 12 8 11 13 -5 31 -11 12 -32 28
-47 36 l-27 14 19 -42z"/>
<path d="M793 1698 c-36 -25 -41 -43 -17 -52 28 -11 35 -7 50 29 22 54 17 58
-33 23z"/>
<path d="M686 1577 c-18 -26 -40 -88 -49 -134 l-6 -33 68 0 c79 0 73 -7 86
111 l6 57 -32 11 c-45 16 -57 14 -73 -12z"/>
<path d="M1307 1587 c-25 -10 -28 -15 -23 -41 4 -17 9 -54 13 -83 l6 -53 65 0
65 0 -5 43 c-7 59 -49 142 -74 144 -10 1 -32 -4 -47 -10z"/>
<path d="M846 1514 c-3 -26 -6 -60 -6 -75 l0 -29 80 0 80 0 0 64 0 63 -52 7
c-29 4 -62 9 -74 12 -19 5 -22 0 -28 -42z"/>
<path d="M1138 1547 l-68 -10 0 -64 0 -63 86 0 86 0 -6 28 c-2 15 -8 48 -11
75 -3 26 -9 46 -13 45 -4 0 -37 -6 -74 -11z"/>
<path d="M637 1308 c8 -44 40 -129 57 -150 12 -16 17 -17 52 -4 38 13 39 15
37 57 -1 24 -5 63 -8 87 l-6 42 -69 0 -69 0 6 -32z"/>
<path d="M842 1268 c5 -40 10 -74 12 -75 2 -2 34 0 72 4 l69 8 3 68 3 67 -84
0 -83 0 8 -72z"/>
<path d="M1070 1276 c0 -36 3 -67 8 -69 4 -3 37 -8 74 -11 l66 -7 5 28 c3 15
9 49 12 76 l6 47 -85 0 -86 0 0 -64z"/>
<path d="M1297 1288 c-3 -29 -9 -68 -13 -85 -5 -28 -3 -34 17 -41 66 -25 64
-26 94 35 15 32 30 77 33 100 l5 43 -65 0 -65 0 -6 -52z"/>
<path d="M903 1133 c-29 -6 -29 -20 3 -88 29 -61 28 -60 67 -69 l27 -6 0 85 0
85 -37 -1 c-21 -1 -48 -4 -60 -6z"/>
<path d="M1070 1055 l0 -85 28 6 c35 8 36 9 66 70 35 70 34 80 -11 88 -86 14
-83 16 -83 -79z"/>
<path d="M777 1097 l-29 -12 45 -33 c25 -17 48 -32 51 -32 6 0 -22 71 -32 82
-4 3 -20 1 -35 -5z"/>
<path d="M1242 1067 c-11 -23 -18 -44 -16 -46 3 -3 94 60 94 65 0 1 -13 7 -30
12 -29 10 -30 9 -48 -31z"/>
<path d="M1825 1398 c0 -111 -4 -145 -23 -208 -79 -250 -258 -430 -508 -507
-49 -15 -93 -18 -256 -18 -193 0 -198 0 -192 -20 22 -70 70 -120 163 -169 114
-60 193 -76 369 -76 174 0 231 11 356 67 110 49 141 45 245 -36 130 -100 121
-124 121 309 0 423 -6 472 -71 607 -53 112 -101 158 -182 178 -22 6 -22 5 -22
-127z"/>
</g>
</svg>
