<svg xmlns="http://www.w3.org/2000/svg" width="30" height="21.096" viewBox="0 0 30 21.096">
  <g id="menu" transform="translate(-3 -7.5)">
    <path id="Path_6626" data-name="Path 6626" d="M3,9A1.4,1.4,0,0,1,4.263,7.5h22.73A1.4,1.4,0,0,1,28.256,9a1.4,1.4,0,0,1-1.263,1.5H4.263A1.4,1.4,0,0,1,3,9Z" fill="#fff"/>
    <path id="Path_6627" data-name="Path 6627" d="M3,18.048a1.375,1.375,0,0,1,1.2-1.5H25.8a1.375,1.375,0,0,1,1.2,1.5,1.375,1.375,0,0,1-1.2,1.5H4.2A1.375,1.375,0,0,1,3,18.048Z" fill="#fff"/>
    <path id="Path_6628" data-name="Path 6628" d="M4.5,25.6a1.5,1.5,0,0,0,0,3h27a1.5,1.5,0,0,0,0-3Z" fill="#fff"/>
  </g>
</svg>
