<svg xmlns="http://www.w3.org/2000/svg" width="9.435" height="9.691" viewBox="0 0 9.435 9.691">
  <path id="Path_6659" data-name="Path 6659" d="M-52.195-646.477c0-.249,0-.5,0-.747a.181.181,0,0,0-.08-.169c-.3-.229-.59-.461-.885-.692a.259.259,0,0,1-.077-.4q.458-.8.918-1.589a.246.246,0,0,1,.36-.125c.36.145.72.291,1.08.438a.147.147,0,0,0,.153-.016c.221-.137.449-.262.672-.4a.187.187,0,0,0,.084-.111c.058-.369.11-.739.16-1.11.031-.229.1-.3.329-.3h1.806c.207,0,.288.072.316.273.053.381.106.763.163,1.144a.145.145,0,0,0,.064.089c.236.142.473.282.713.416a.174.174,0,0,0,.131.005c.361-.142.721-.29,1.081-.435a.245.245,0,0,1,.36.123q.466.8.929,1.609a.248.248,0,0,1-.076.374c-.3.238-.607.477-.912.712a.15.15,0,0,0-.066.141c.006.264,0,.528,0,.792a.175.175,0,0,0,.054.12c.3.242.605.479.909.717a.258.258,0,0,1,.078.392q-.461.8-.924,1.6a.245.245,0,0,1-.361.12c-.357-.144-.714-.287-1.07-.433a.156.156,0,0,0-.164.015c-.217.137-.44.263-.664.388-.052.029-.087.051-.1.12-.046.367-.1.733-.153,1.1-.029.212-.091.31-.345.307-.591-.007-1.182,0-1.772,0-.235,0-.305-.067-.336-.3q-.074-.556-.16-1.11a.173.173,0,0,0-.078-.1c-.223-.134-.451-.259-.672-.4a.157.157,0,0,0-.164-.019c-.359.148-.719.293-1.079.439a.243.243,0,0,1-.352-.121q-.463-.8-.924-1.6a.258.258,0,0,1,.081-.4c.3-.23.591-.46.883-.695a.649.649,0,0,0,.1-.148Zm1.914-.377a1.706,1.706,0,0,0,1.691,1.7,1.706,1.706,0,0,0,1.707-1.688,1.707,1.707,0,0,0-1.7-1.709A1.706,1.706,0,0,0-50.281-646.855Z" transform="translate(53.298 651.694)" fill="#ff9885"/>
</svg>
