<svg xmlns="http://www.w3.org/2000/svg" width="24.371" height="24.371" viewBox="0 0 24.371 24.371">
  <g id="plus" transform="translate(-6.375 -6.375)">
    <path id="Path_6629" data-name="Path 6629" d="M18.561,7.875a1.187,1.187,0,0,1,1.187,1.187v9.5a1.187,1.187,0,0,1-1.187,1.187h-9.5a1.187,1.187,0,1,1,0-2.375h8.311V9.062A1.187,1.187,0,0,1,18.561,7.875Z" transform="translate(0 0)" fill="#fff" stroke="#fff" stroke-width="3" fill-rule="evenodd"/>
    <path id="Path_6630" data-name="Path 6630" d="M16.875,18.062a1.187,1.187,0,0,1,1.187-1.187h9.5a1.187,1.187,0,1,1,0,2.375H19.25v8.311a1.187,1.187,0,1,1-2.375,0Z" transform="translate(0.498 0.498)" fill="#fff" stroke="#fff" stroke-width="3" fill-rule="evenodd"/>
  </g>
</svg>
