<svg xmlns="http://www.w3.org/2000/svg" width="19.145" height="13.675" viewBox="0 0 19.145 13.675">
  <path id="video" d="M15.241,20.425H3.617A1.367,1.367,0,0,1,2.25,19.057V8.117A1.367,1.367,0,0,1,3.617,6.75H15.241a1.367,1.367,0,0,1,1.367,1.367v2.776l3.706-2.646a.684.684,0,0,1,1.08.554v9.572a.684.684,0,0,1-1.081.554l-3.706-2.646v2.776A1.367,1.367,0,0,1,15.241,20.425ZM3.617,8.117v10.94H15.241v-4.1a.684.684,0,0,1,1.081-.554l3.706,2.646V10.127l-3.706,2.646a.684.684,0,0,1-1.08-.554v-4.1Z" transform="translate(-2.25 -6.75)" fill="#ff9885"/>
</svg>
